<?xml version="1.0" encoding="UTF-8"?><svg id="Layer_2" xmlns="http://www.w3.org/2000/svg" width="339.4" height="283.53" viewBox="0 0 339.4 283.53"><defs><style>.cls-1{stroke-width:10px;}.cls-1,.cls-2,.cls-3{stroke:#ff5635;stroke-miterlimit:10;}.cls-1,.cls-3{fill:none;}.cls-2{fill:#ff5635;stroke-width:8px;}.cls-3{stroke-width:9.88px;}</style></defs><path class="cls-1" d="M169.54,168.95l41.44-89.45c5.68-11.24,7.21-24.13,4.32-36.39h0c-3.45-14.6-13.51-26.74-27.21-32.84h0c-12.99-5.78-27.92-5.29-40.5,1.32h0c-12.76,6.71-21.61,19.03-23.9,33.27l-.23,1.45c-1.82,11.32-.39,22.93,4.13,33.47l41.97,89.18Z"/><line class="cls-1" x1="185.91" y1="208.74" x2="185.87" y2="272.62"/><polyline class="cls-1" points="133.36 88.11 134.22 204.16 96.62 276.78"/><circle class="cls-2" cx="169.54" cy="56.68" r="20.62"/><polyline class="cls-1" points="74.12 204.79 134.16 204.58 187.93 204.22 212.75 164.88 264.82 164.69"/><rect class="cls-3" x="70.3" y="92.68" width="198.79" height="184.6"/></svg>