<?xml version="1.0" encoding="UTF-8"?><svg id="Layer_6" xmlns="http://www.w3.org/2000/svg" width="339.4" height="283.53" viewBox="0 0 339.4 283.53"><defs><style>.cls-1{fill:none;stroke:#ff5635;stroke-miterlimit:10;stroke-width:10px;}</style></defs><path class="cls-1" d="M87.53,16.96l43.27,44.29c4,4.09,5.73,9.89,4.63,15.5h0s-20.54,20.23-20.54,20.23c-1.85,1.82-3.06,4.18-3.48,6.74h0c-1.39,8.58.88,17.36,6.25,24.2l22.56,28.74c4.18,5.12,9.01,10.32,14.58,15.38.96.87,1.92,1.72,2.87,2.54,9.65,8.48,19.29,16.96,28.94,25.43,4.68,4.11,10.51,6.66,16.71,7.29,5.93.61,11.84-1.27,16.33-5.19l17.9-15.64c2.33-2.04,5.31-3.17,8.41-3.18,7.04-.04,13.79,2.78,18.71,7.82l30.01,30.78c4.21,4.32,7.14,9.72,8.46,15.61h0c.25,1.85.33,4.39-.38,7.26-1.86,7.53-7.76,11.55-9.48,12.63-4.5,3.1-9.01,6.2-13.51,9.3-3.65,2.5-9.52,5.86-17.39,7.83-6.36,1.59-11.9,1.74-15.87,1.53l-13.77-1.2c-8.15-.71-16.12-2.75-23.61-6.05l-25.68-11.31c-10.55-4.65-27.88-18.27-36.71-25.69-11.4-11.23-22.79-22.46-34.19-33.69-7.19-6.99-14.46-14.35-21.77-22.09-3.57-3.78-7.06-7.55-10.45-11.3-8.84-9.33-18.94-22.3-26.92-39.35-2.54-5.41-4.58-10.65-6.24-15.59l-.61-1.63c-4.58-12.27-6.73-25.3-6.35-38.39l.09-3.17c.46-15.9,6.56-31.11,17.2-42.93l8.62-9.57h0c6.95-4.09,15.79-2.92,21.43,2.85Z"/><path class="cls-1" d="M183.85,58.24s74.18-14.09,74.18,73.94"/><path class="cls-1" d="M183.85,25.38s110.5-20.35,110.5,106.8"/></svg>