<?xml version="1.0" encoding="UTF-8"?><svg id="Layer_2" xmlns="http://www.w3.org/2000/svg" width="339.4" height="283.53" viewBox="0 0 339.4 283.53"><defs><style>.cls-1{fill:none;stroke:#ff5635;stroke-miterlimit:10;stroke-width:10px;}</style></defs><path class="cls-1" d="M150.82,223.34h0c-2.82-3.3-4.41-7.47-4.51-11.81l-.86-38.03-.9-55.54c-.07-4.34,1.34-8.58,4-12.01h0c3.66-4.72,9.32-7.46,15.29-7.39l150.09,1.59c5.59.06,10.81,2.83,13.99,7.43h0c2,2.89,3.07,6.33,3.07,9.85l-.19,96.65c0,3.87-1.45,7.61-4.05,10.48h0s0,0,0,0c-3.05,3.38-7.41,5.29-11.96,5.24l-25.54-.24.53,37.48-34.76-36.89s-48.45-.63-48.4-.47l-41.34.28c-5.56.04-10.85-2.38-14.46-6.61Z"/><path class="cls-1" d="M188.17,139.1h0c2.82-3.3,4.41-7.47,4.51-11.81l.86-38.03.9-55.54c.07-4.34-1.34-8.58-4-12.01h0c-3.66-4.72-9.32-7.46-15.29-7.39l-150.09,1.59c-5.59.06-10.81,2.83-13.99,7.43h0c-2,2.89-3.07,6.33-3.07,9.85l.19,96.65c0,3.87,1.45,7.61,4.05,10.48h0s0,0,0,0c3.05,3.38,7.41,5.29,11.96,5.24l25.54-.24-.53,37.48,34.76-36.89s48.45-.63,48.4-.47l41.34.28c5.56.04,10.85-2.38,14.46-6.61Z"/></svg>