<svg width="128" height="31" viewBox="0 0 128 31" fill="none" xmlns="http://www.w3.org/2000/svg">
<path d="M0.996094 23C1.42578 21.7012 2.09473 19.6113 3.00293 16.7305L4.80469 11.208C5.16602 10.1143 5.3125 9.45508 5.24414 9.23047C5.16602 9.10352 5.03906 9.02539 4.86328 8.99609C4.54102 8.99609 4.05273 9.32812 3.39844 9.99219C2.75391 10.6465 2.04102 11.5547 1.25977 12.7168L0.893555 12.5264C3.17871 9.1084 5.20996 7.39941 6.9873 7.39941C8.73535 7.39941 9.1748 8.57129 8.30566 10.915L5.66895 17.9609H5.81543C7.82715 13.4395 9.35059 10.5488 10.3857 9.28906C10.9521 8.60547 11.4307 8.15625 11.8213 7.94141C12.2119 7.7168 12.6807 7.60449 13.2275 7.60449C13.9111 7.60449 14.458 7.84375 14.8682 8.32227C15.2881 8.79102 15.5225 9.40137 15.5713 10.1533C15.6104 10.8662 15.4053 11.4912 14.9561 12.0283C14.5068 12.5654 13.96 12.834 13.3154 12.834C12.8857 12.834 12.5244 12.7168 12.2314 12.4824C11.9482 12.248 11.8018 11.9355 11.792 11.5449C11.7822 11.2812 11.8701 10.9443 12.0557 10.5342C12.2412 10.124 12.334 9.87988 12.334 9.80176C12.334 9.40137 12.1533 9.20117 11.792 9.20117C11.1572 9.20117 10.1172 10.5195 8.67188 13.1562C7.57812 15.1777 6.11816 18.459 4.29199 23H0.996094ZM23.6191 15.2656L20.7041 16.0713C20.4697 16.9307 20.3525 17.79 20.3525 18.6494C20.3525 19.6553 20.5576 20.4316 20.9678 20.9785C21.3877 21.5254 21.9297 21.7988 22.5938 21.7988C24.4004 21.7988 26.0312 20.71 27.4863 18.5322L27.7939 18.6787C27.1104 19.9092 26.1582 21.042 24.9375 22.0771C23.7754 23.0342 22.4961 23.5127 21.0996 23.5127C19.7617 23.5127 18.7217 23.0195 17.9795 22.0332C17.2178 21.0176 16.8369 19.8213 16.8369 18.4443C16.8369 16.6768 17.2227 14.9775 17.9941 13.3467C18.7656 11.7061 19.8398 10.3535 21.2168 9.28906C22.6133 8.18555 24.1318 7.63379 25.7725 7.63379C26.7197 7.63379 27.5693 7.93652 28.3213 8.54199C29.1025 9.14746 29.4932 9.91895 29.4932 10.8564C29.4248 11.6475 29.2002 12.2822 28.8193 12.7607C28.4385 13.2393 27.8232 13.6738 26.9736 14.0645C26.2119 14.3965 25.0938 14.7969 23.6191 15.2656ZM25.7139 8.23438C25.04 8.23438 24.1709 9.01562 23.1064 10.5781C22.0811 12.0918 21.3096 13.7812 20.792 15.6465C22.8818 14.7969 24.415 13.9277 25.3916 13.0391C26.3682 12.1504 26.8564 11.0518 26.8564 9.74316C26.8564 9.26465 26.7539 8.89355 26.5488 8.62988C26.3438 8.36621 26.0654 8.23438 25.7139 8.23438ZM39.4014 1.33496C39.9873 1.33496 40.4805 1.53516 40.8809 1.93555C41.2812 2.33594 41.4814 2.8291 41.4814 3.41504C41.501 3.83496 41.3789 4.21582 41.1152 4.55762C40.8613 4.88965 40.5488 5.13379 40.1777 5.29004C39.8164 5.43652 39.4258 5.48047 39.0059 5.42188C38.5859 5.35352 38.2393 5.16309 37.9658 4.85059C37.6533 4.57715 37.4629 4.23047 37.3945 3.81055C37.3359 3.39062 37.3799 3 37.5264 2.63867C37.6826 2.26758 37.9268 1.95508 38.2588 1.70117C38.6006 1.4375 38.9814 1.31543 39.4014 1.33496ZM29.543 29.9287C28.5469 29.9287 27.7363 29.626 27.1113 29.0205C26.4766 28.4248 26.1836 27.7266 26.2324 26.9258C26.2422 26.2227 26.4326 25.6514 26.8037 25.2119C27.165 24.7725 27.6143 24.5527 28.1514 24.5527C28.5811 24.5527 28.9424 24.6846 29.2354 24.9482C29.5186 25.2119 29.6504 25.5244 29.6309 25.8857C29.6602 26.2666 29.499 26.7061 29.1475 27.2041C28.8057 27.6924 28.6348 28 28.6348 28.127C28.6055 28.9863 29.0254 29.416 29.8945 29.416C30.3926 29.416 30.8711 29.2061 31.3301 28.7861C31.7988 28.3662 32.1211 27.8291 32.2969 27.1748C32.3652 26.8525 32.458 25.9785 32.5752 24.5527C32.6924 23.1562 32.9023 21.9062 33.2051 20.8027L35.959 11.208C36.291 10.1826 36.3887 9.55273 36.252 9.31836C36.1641 9.20117 36.0176 9.14258 35.8125 9.14258C35.4902 9.14258 35.0215 9.4502 34.4062 10.0654C33.8008 10.6807 33.1367 11.5645 32.4141 12.7168L32.0918 12.5264C34.1035 9.1084 36.0908 7.39941 38.0537 7.39941C38.7959 7.39941 39.2744 7.6875 39.4893 8.26367C39.7041 8.83984 39.6553 9.84082 39.3428 11.2666L36.1348 22.5752C35.4805 24.8994 34.5479 26.7061 33.3369 27.9951C32.1357 29.2842 30.8711 29.9287 29.543 29.9287ZM45.6914 23.3955C44.4219 23.3955 43.416 23.0684 42.6738 22.4141C41.9316 21.75 41.5996 20.9053 41.6777 19.8799C41.7266 19.3916 41.9268 18.9668 42.2783 18.6055C42.6299 18.2344 43.0596 18.0488 43.5674 18.0488C44.0947 18.0488 44.4951 18.1953 44.7686 18.4883C45.0518 18.7812 45.1689 19.1768 45.1201 19.6748C45.0908 19.9092 44.9688 20.2412 44.7539 20.6709C44.5391 21.1006 44.4316 21.418 44.4316 21.623C44.4121 21.9844 44.5439 22.2773 44.8271 22.502C45.1201 22.7168 45.5498 22.8242 46.1162 22.8242C46.8486 22.8242 47.459 22.5508 47.9473 22.0039C48.4551 21.4668 48.7236 20.8809 48.7529 20.2461C48.792 19.6895 48.6113 19.0449 48.2109 18.3125C47.8105 17.5703 47.3027 16.8525 46.6875 16.1592C46.0918 15.4756 45.5938 14.7139 45.1934 13.874C44.793 13.0244 44.6123 12.2383 44.6514 11.5156C44.7393 10.4023 45.3154 9.47949 46.3799 8.74707C47.4834 7.98535 48.6943 7.60449 50.0127 7.60449C51.2334 7.60449 52.2148 7.97559 52.957 8.71777C53.709 9.44043 54.0703 10.2705 54.041 11.208C54.0215 11.7061 53.8457 12.1504 53.5137 12.541C53.1914 12.9316 52.7959 13.127 52.3271 13.127C51.2822 13.127 50.7891 12.6289 50.8477 11.6328C50.877 11.2715 51.0479 10.9102 51.3604 10.5488C51.6924 10.1582 51.873 9.87012 51.9023 9.68457C51.9512 9.30371 51.7852 8.94727 51.4043 8.61523C51.0234 8.2832 50.5498 8.11719 49.9834 8.11719C49.2607 8.11719 48.6748 8.3125 48.2256 8.70312C47.7861 9.08398 47.5615 9.60156 47.5518 10.2559C47.5225 10.9395 47.874 11.7988 48.6064 12.834C49.4756 14.0352 50.2227 15.085 50.8477 15.9834C51.6094 17.0869 51.9609 18.0342 51.9023 18.8252C51.8145 20.1533 51.2041 21.2471 50.0713 22.1064C48.9385 22.9658 47.4785 23.3955 45.6914 23.3955ZM62.8945 15.2656L59.9795 16.0713C59.7451 16.9307 59.6279 17.79 59.6279 18.6494C59.6279 19.6553 59.833 20.4316 60.2432 20.9785C60.6631 21.5254 61.2051 21.7988 61.8691 21.7988C63.6758 21.7988 65.3066 20.71 66.7617 18.5322L67.0693 18.6787C66.3857 19.9092 65.4336 21.042 64.2129 22.0771C63.0508 23.0342 61.7715 23.5127 60.375 23.5127C59.0371 23.5127 57.9971 23.0195 57.2549 22.0332C56.4932 21.0176 56.1123 19.8213 56.1123 18.4443C56.1123 16.6768 56.498 14.9775 57.2695 13.3467C58.041 11.7061 59.1152 10.3535 60.4922 9.28906C61.8887 8.18555 63.4072 7.63379 65.0479 7.63379C65.9951 7.63379 66.8447 7.93652 67.5967 8.54199C68.3779 9.14746 68.7686 9.91895 68.7686 10.8564C68.7002 11.6475 68.4756 12.2822 68.0947 12.7607C67.7139 13.2393 67.0986 13.6738 66.249 14.0645C65.4873 14.3965 64.3691 14.7969 62.8945 15.2656ZM64.9893 8.23438C64.3154 8.23438 63.4463 9.01562 62.3818 10.5781C61.3564 12.0918 60.585 13.7812 60.0674 15.6465C62.1572 14.7969 63.6904 13.9277 64.667 13.0391C65.6436 12.1504 66.1318 11.0518 66.1318 9.74316C66.1318 9.26465 66.0293 8.89355 65.8242 8.62988C65.6191 8.36621 65.3408 8.23438 64.9893 8.23438ZM72.8906 23.5127C72.3242 23.5127 71.8604 23.3711 71.499 23.0879C71.1377 22.8047 70.9033 22.3799 70.7959 21.8135C70.6982 21.2373 70.7861 20.5146 71.0596 19.6455L75.8643 4.25C76.2061 3.29297 76.2744 2.62402 76.0693 2.24316C75.874 1.8623 75.3467 1.67188 74.4873 1.67188L74.6338 1.21777L80.6689 0.133789L74.4287 19.7041C73.9502 21.1982 74.0283 21.9453 74.6631 21.9453C75.0635 21.9453 75.5469 21.6328 76.1133 21.0078C76.6895 20.3828 77.2852 19.5186 77.9004 18.415L78.2666 18.5615C77.417 20.1924 76.5039 21.4277 75.5273 22.2676C74.5508 23.0977 73.6719 23.5127 72.8906 23.5127ZM95.7188 9.46484C95.7188 11.457 94.8691 13.7178 93.1699 16.2471C91.4414 18.8154 89.4102 21.1152 87.0762 23.1465C86.2168 24.6699 85.1182 26.1299 83.7803 27.5264C83.0479 28.3076 82.2129 28.9326 81.2754 29.4014C80.3477 29.8701 79.4443 30.1045 78.5654 30.1045C77.6475 30.1045 76.9102 29.9141 76.3535 29.5332C75.7871 29.1523 75.5039 28.6738 75.5039 28.0977C75.5039 27.6973 75.665 27.3262 75.9873 26.9844C76.3096 26.6523 76.71 26.4863 77.1885 26.4863C77.4717 26.4863 77.7012 26.5742 77.877 26.75C78.043 26.9258 78.1748 27.1406 78.2725 27.3945C78.3701 27.6484 78.4824 27.9023 78.6094 28.1562C78.7266 28.4102 78.9219 28.625 79.1953 28.8008C79.459 28.9766 79.8057 29.0645 80.2354 29.0645C81.251 29.0645 82.1934 28.1025 83.0625 26.1787C83.9609 24.2744 84.6396 22.043 85.0986 19.4844C85.5771 16.9648 85.8164 14.5674 85.8164 12.292C85.8164 10.3096 85.5088 9.31836 84.8936 9.31836C84.5615 9.31836 84.1172 9.63086 83.5605 10.2559C83.0039 10.8711 82.4277 11.7207 81.832 12.8047L81.4365 12.585C83.2041 9.26465 85.0449 7.60449 86.959 7.60449C88.4434 7.60449 89.1855 9.1377 89.1855 12.2041C89.1855 15.2998 88.624 18.6201 87.501 22.165C89.3955 20.3584 90.8701 18.6152 91.9248 16.9355C92.9795 15.2559 93.5068 13.835 93.5068 12.6729C93.5068 12.1357 93.2969 11.5693 92.877 10.9736C92.4766 10.3389 92.2764 9.83594 92.2764 9.46484C92.2764 8.94727 92.457 8.50781 92.8184 8.14648C93.1895 7.78516 93.6094 7.60449 94.0781 7.60449C94.5859 7.60449 94.9863 7.76562 95.2793 8.08789C95.5723 8.41016 95.7188 8.86914 95.7188 9.46484ZM100.939 23.3955C99.6699 23.3955 98.6641 23.0684 97.9219 22.4141C97.1797 21.75 96.8477 20.9053 96.9258 19.8799C96.9746 19.3916 97.1748 18.9668 97.5264 18.6055C97.8779 18.2344 98.3076 18.0488 98.8154 18.0488C99.3428 18.0488 99.7432 18.1953 100.017 18.4883C100.3 18.7812 100.417 19.1768 100.368 19.6748C100.339 19.9092 100.217 20.2412 100.002 20.6709C99.7871 21.1006 99.6797 21.418 99.6797 21.623C99.6602 21.9844 99.792 22.2773 100.075 22.502C100.368 22.7168 100.798 22.8242 101.364 22.8242C102.097 22.8242 102.707 22.5508 103.195 22.0039C103.703 21.4668 103.972 20.8809 104.001 20.2461C104.04 19.6895 103.859 19.0449 103.459 18.3125C103.059 17.5703 102.551 16.8525 101.936 16.1592C101.34 15.4756 100.842 14.7139 100.441 13.874C100.041 13.0244 99.8604 12.2383 99.8994 11.5156C99.9873 10.4023 100.563 9.47949 101.628 8.74707C102.731 7.98535 103.942 7.60449 105.261 7.60449C106.481 7.60449 107.463 7.97559 108.205 8.71777C108.957 9.44043 109.318 10.2705 109.289 11.208C109.27 11.7061 109.094 12.1504 108.762 12.541C108.439 12.9316 108.044 13.127 107.575 13.127C106.53 13.127 106.037 12.6289 106.096 11.6328C106.125 11.2715 106.296 10.9102 106.608 10.5488C106.94 10.1582 107.121 9.87012 107.15 9.68457C107.199 9.30371 107.033 8.94727 106.652 8.61523C106.271 8.2832 105.798 8.11719 105.231 8.11719C104.509 8.11719 103.923 8.3125 103.474 8.70312C103.034 9.08398 102.81 9.60156 102.8 10.2559C102.771 10.9395 103.122 11.7988 103.854 12.834C104.724 14.0352 105.471 15.085 106.096 15.9834C106.857 17.0869 107.209 18.0342 107.15 18.8252C107.062 20.1533 106.452 21.2471 105.319 22.1064C104.187 22.9658 102.727 23.3955 100.939 23.3955ZM119.256 8.74707L115.916 19.6162C115.457 21.0908 115.54 21.8281 116.165 21.8281C116.546 21.8281 117.059 21.501 117.703 20.8467C118.357 20.1826 118.982 19.3281 119.578 18.2832H120.091C118.187 21.6914 116.185 23.3955 114.085 23.3955C113.216 23.3955 112.645 23.1074 112.371 22.5312C112.107 21.9453 112.142 20.9395 112.474 19.5137L115.77 8.74707H112.986L113.191 8H116.004L117.205 4.10352L120.867 3.53223L119.49 8C120.809 7.9707 122.127 7.78027 123.445 7.42871L122.918 8.74707H119.256ZM127.26 22.7949C126.859 23.1953 126.366 23.3955 125.78 23.3955C125.204 23.3955 124.706 23.1953 124.286 22.7949C123.886 22.375 123.686 21.877 123.686 21.3008C123.686 20.7148 123.886 20.2217 124.286 19.8213C124.706 19.4209 125.204 19.2207 125.78 19.2207C126.366 19.2207 126.859 19.4209 127.26 19.8213C127.66 20.2217 127.86 20.7148 127.86 21.3008C127.86 21.877 127.66 22.375 127.26 22.7949Z" fill="#FF5635"/>
</svg>
