<svg width="18" height="17" viewBox="0 0 18 17" fill="none" xmlns="http://www.w3.org/2000/svg">
<path d="M0.996094 16C1.42578 14.7012 2.09473 12.6113 3.00293 9.73047L4.80469 4.20801C5.16602 3.11426 5.3125 2.45508 5.24414 2.23047C5.16602 2.10352 5.03906 2.02539 4.86328 1.99609C4.54102 1.99609 4.05273 2.32812 3.39844 2.99219C2.75391 3.64648 2.04102 4.55469 1.25977 5.7168L0.893555 5.52637C3.17871 2.1084 5.20996 0.399414 6.9873 0.399414C8.73535 0.399414 9.1748 1.57129 8.30566 3.91504L5.66895 10.9609H5.81543C7.82715 6.43945 9.35059 3.54883 10.3857 2.28906C10.9521 1.60547 11.4307 1.15625 11.8213 0.941406C12.2119 0.716797 12.6807 0.604492 13.2275 0.604492C13.9111 0.604492 14.458 0.84375 14.8682 1.32227C15.2881 1.79102 15.5225 2.40137 15.5713 3.15332C15.6104 3.86621 15.4053 4.49121 14.9561 5.02832C14.5068 5.56543 13.96 5.83398 13.3154 5.83398C12.8857 5.83398 12.5244 5.7168 12.2314 5.48242C11.9482 5.24805 11.8018 4.93555 11.792 4.54492C11.7822 4.28125 11.8701 3.94434 12.0557 3.53418C12.2412 3.12402 12.334 2.87988 12.334 2.80176C12.334 2.40137 12.1533 2.20117 11.792 2.20117C11.1572 2.20117 10.1172 3.51953 8.67188 6.15625C7.57812 8.17773 6.11816 11.459 4.29199 16H0.996094ZM17.3789 15.7949C16.9785 16.1953 16.4854 16.3955 15.8994 16.3955C15.3232 16.3955 14.8252 16.1953 14.4053 15.7949C14.0049 15.375 13.8047 14.877 13.8047 14.3008C13.8047 13.7148 14.0049 13.2217 14.4053 12.8213C14.8252 12.4209 15.3232 12.2207 15.8994 12.2207C16.4854 12.2207 16.9785 12.4209 17.3789 12.8213C17.7793 13.2217 17.9795 13.7148 17.9795 14.3008C17.9795 14.877 17.7793 15.375 17.3789 15.7949Z" fill="#FF5635"/>
</svg>
