<svg width="30" height="29" viewBox="0 0 30 29" fill="none" xmlns="http://www.w3.org/2000/svg">
<path id="Icon awesome-instagram" d="M14.7465 7.25556C13.2612 7.24879 11.8074 7.67312 10.5688 8.47488C9.33016 9.27664 8.3624 10.4198 7.78787 11.7599C7.21334 13.0999 7.05785 14.5766 7.34106 16.0033C7.62427 17.4299 8.33347 18.7424 9.37896 19.7748C10.4245 20.8072 11.7593 21.5131 13.2147 21.8033C14.67 22.0934 16.1806 21.9548 17.5553 21.4049C18.93 20.855 20.1072 19.9186 20.9379 18.714C21.7685 17.5094 22.2155 16.0908 22.2221 14.6375C22.2282 13.6722 22.0394 12.7151 21.6667 11.8212C21.294 10.9273 20.7446 10.1142 20.0501 9.4284C19.3556 8.74261 18.5296 8.19766 17.6195 7.8248C16.7094 7.45194 15.7331 7.25849 14.7465 7.25556ZM14.6908 19.38C13.7253 19.3756 12.7828 19.0912 11.9824 18.5626C11.182 18.0341 10.5597 17.2853 10.1942 16.4108C9.82876 15.5363 9.7365 14.5754 9.92911 13.6497C10.1217 12.7239 10.5906 11.8749 11.2764 11.21C11.9621 10.5451 12.8341 10.0941 13.7819 9.91414C14.7297 9.73414 15.7108 9.8332 16.6011 10.1988C17.4915 10.5644 18.2511 11.1801 18.7839 11.9681C19.3167 12.756 19.5988 13.6808 19.5945 14.6256C19.5862 15.8917 19.0655 17.1029 18.1464 17.994C17.2274 18.8851 15.9848 19.3835 14.6908 19.38ZM24.3161 6.999C24.3145 7.33786 24.2103 7.66864 24.0166 7.94952C23.823 8.23041 23.5485 8.44878 23.228 8.57704C22.9075 8.7053 22.5553 8.73768 22.2159 8.6701C21.8765 8.60251 21.5653 8.43798 21.3214 8.19732C21.0776 7.95666 20.9121 7.65068 20.846 7.31804C20.7798 6.98541 20.8159 6.64107 20.9498 6.32856C21.0836 6.01605 21.3091 5.7494 21.5979 5.56232C21.8866 5.37524 22.2255 5.27614 22.5718 5.27754C22.802 5.27798 23.0299 5.32293 23.2423 5.40978C23.4547 5.49664 23.6474 5.6237 23.8095 5.78366C23.9716 5.94362 24.0998 6.13333 24.1867 6.3419C24.2736 6.55046 24.3176 6.77377 24.3161 6.999ZM29.28 8.76423C29.338 6.53722 28.4981 4.37716 26.9419 2.75081C25.2907 1.21848 23.0932 0.377866 20.8179 0.408208C18.4018 0.262597 11.1517 0.229579 8.73442 0.353178C6.46016 0.299042 4.25462 1.11747 2.58916 2.63353C1.02076 4.2473 0.161585 6.39851 0.196045 8.62541C0.0476291 10.9895 0.0150774 18.0835 0.141792 20.4488C0.0837922 22.6758 0.923627 24.8359 2.47982 26.4622C4.13171 27.9935 6.32879 28.8339 8.60387 28.8048C11.0199 28.9504 18.27 28.9835 20.6873 28.8599C22.9633 28.917 25.1708 28.0956 26.8326 26.5731C28.3984 24.9577 29.2571 22.8076 29.2257 20.5813C29.3741 18.2172 29.4067 11.1304 29.28 8.76332L29.28 8.76423ZM26.0919 23.1027C25.8405 23.7193 25.4621 24.2786 24.9802 24.7458C24.4983 25.213 23.9233 25.5782 23.2909 25.8185C21.3597 26.5582 16.7818 26.3646 14.6551 26.3549C12.5284 26.3452 7.94245 26.4908 6.02459 25.7399C5.39443 25.4938 4.82276 25.1234 4.34518 24.6518C3.8676 24.1802 3.49433 23.6175 3.24862 22.9987C2.4923 21.1089 2.68946 16.6296 2.69901 14.5486C2.70856 12.4677 2.55905 7.98041 3.32614 6.10395C3.57753 5.48739 3.95594 4.92809 4.43783 4.46086C4.91972 3.99364 5.49476 3.6285 6.12715 3.38817C8.05836 2.64844 12.6363 2.84209 14.763 2.85178C16.8896 2.86146 21.4756 2.71591 23.3935 3.4668C24.0236 3.71288 24.5953 4.08324 25.0729 4.55484C25.5505 5.02643 25.9237 5.58916 26.1694 6.20798C26.9258 8.09775 26.7286 12.5771 26.7191 14.658C26.7095 16.7389 26.8646 21.2263 26.0919 23.1027Z" fill="#FDFDFD"/>
</svg>
