<svg width="30" height="29" viewBox="0 0 30 29" fill="none" xmlns="http://www.w3.org/2000/svg">
<path id="Vector" d="M6.91439 29H0.900771V9.63862H6.91439V29ZM3.90434 6.99754C1.9818 6.99754 0.421753 5.40513 0.421753 3.48259C0.421753 2.55895 0.788668 1.67314 1.44178 1.02003C2.09489 0.366915 2.9807 0 3.90434 0C4.82798 0 5.71379 0.366915 6.3669 1.02003C7.02002 1.67314 7.38693 2.55895 7.38693 3.48259C7.38693 5.40513 5.82689 6.99754 3.90434 6.99754ZM29.4153 29H23.4146V19.575C23.4146 17.3288 23.3693 14.4482 20.288 14.4482C17.1615 14.4482 16.6825 16.8886 16.6825 19.4132V29H10.6753V9.63862H16.443V12.2797H16.5271C17.3298 10.7585 19.2912 9.15312 22.2171 9.15312C28.3019 9.15312 29.4218 13.16 29.4218 18.3645V29H29.4153Z" fill="#FDFDFD"/>
</svg>
