<svg width="128" height="31" viewBox="0 0 128 31" fill="none" xmlns="http://www.w3.org/2000/svg">
<path d="M0.15686 23C0.586548 21.7012 1.25549 19.6113 2.1637 16.7305L3.96545 11.208C4.32678 10.1143 4.47327 9.45508 4.40491 9.23047C4.32678 9.10352 4.19983 9.02539 4.02405 8.99609C3.70178 8.99609 3.2135 9.32812 2.5592 9.99219C1.91467 10.6465 1.20178 11.5547 0.420532 12.7168L0.0543213 12.5264C2.33948 9.1084 4.37073 7.39941 6.14807 7.39941C7.89612 7.39941 8.33557 8.57129 7.46643 10.915L4.82971 17.9609H4.9762C6.98792 13.4395 8.51135 10.5488 9.54651 9.28906C10.1129 8.60547 10.5914 8.15625 10.9821 7.94141C11.3727 7.7168 11.8414 7.60449 12.3883 7.60449C13.0719 7.60449 13.6188 7.84375 14.0289 8.32227C14.4489 8.79102 14.6832 9.40137 14.7321 10.1533C14.7711 10.8662 14.566 11.4912 14.1168 12.0283C13.6676 12.5654 13.1207 12.834 12.4762 12.834C12.0465 12.834 11.6852 12.7168 11.3922 12.4824C11.109 12.248 10.9625 11.9355 10.9528 11.5449C10.943 11.2812 11.0309 10.9443 11.2164 10.5342C11.402 10.124 11.4948 9.87988 11.4948 9.80176C11.4948 9.40137 11.3141 9.20117 10.9528 9.20117C10.318 9.20117 9.27795 10.5195 7.83264 13.1562C6.73889 15.1777 5.27893 18.459 3.45276 23H0.15686ZM22.7799 15.2656L19.8649 16.0713C19.6305 16.9307 19.5133 17.79 19.5133 18.6494C19.5133 19.6553 19.7184 20.4316 20.1285 20.9785C20.5485 21.5254 21.0905 21.7988 21.7545 21.7988C23.5612 21.7988 25.192 20.71 26.6471 18.5322L26.9547 18.6787C26.2711 19.9092 25.319 21.042 24.0983 22.0771C22.9362 23.0342 21.6569 23.5127 20.2604 23.5127C18.9225 23.5127 17.8824 23.0195 17.1403 22.0332C16.3785 21.0176 15.9977 19.8213 15.9977 18.4443C15.9977 16.6768 16.3834 14.9775 17.1549 13.3467C17.9264 11.7061 19.0006 10.3535 20.3776 9.28906C21.774 8.18555 23.2926 7.63379 24.9332 7.63379C25.8805 7.63379 26.7301 7.93652 27.4821 8.54199C28.2633 9.14746 28.6539 9.91895 28.6539 10.8564C28.5856 11.6475 28.361 12.2822 27.9801 12.7607C27.5992 13.2393 26.984 13.6738 26.1344 14.0645C25.3727 14.3965 24.2545 14.7969 22.7799 15.2656ZM24.8746 8.23438C24.2008 8.23438 23.3317 9.01562 22.2672 10.5781C21.2418 12.0918 20.4703 13.7812 19.9528 15.6465C22.0426 14.7969 23.5758 13.9277 24.5524 13.0391C25.5289 12.1504 26.0172 11.0518 26.0172 9.74316C26.0172 9.26465 25.9147 8.89355 25.7096 8.62988C25.5045 8.36621 25.2262 8.23438 24.8746 8.23438ZM38.5621 1.33496C39.1481 1.33496 39.6412 1.53516 40.0416 1.93555C40.442 2.33594 40.6422 2.8291 40.6422 3.41504C40.6617 3.83496 40.5397 4.21582 40.276 4.55762C40.0221 4.88965 39.7096 5.13379 39.3385 5.29004C38.9772 5.43652 38.5865 5.48047 38.1666 5.42188C37.7467 5.35352 37.4 5.16309 37.1266 4.85059C36.8141 4.57715 36.6237 4.23047 36.5553 3.81055C36.4967 3.39062 36.5406 3 36.6871 2.63867C36.8434 2.26758 37.0875 1.95508 37.4196 1.70117C37.7614 1.4375 38.1422 1.31543 38.5621 1.33496ZM28.7037 29.9287C27.7076 29.9287 26.8971 29.626 26.2721 29.0205C25.6373 28.4248 25.3444 27.7266 25.3932 26.9258C25.403 26.2227 25.5934 25.6514 25.9645 25.2119C26.3258 24.7725 26.775 24.5527 27.3121 24.5527C27.7418 24.5527 28.1031 24.6846 28.3961 24.9482C28.6793 25.2119 28.8112 25.5244 28.7916 25.8857C28.8209 26.2666 28.6598 26.7061 28.3082 27.2041C27.9664 27.6924 27.7955 28 27.7955 28.127C27.7662 28.9863 28.1862 29.416 29.0553 29.416C29.5533 29.416 30.0319 29.2061 30.4908 28.7861C30.9596 28.3662 31.2819 27.8291 31.4576 27.1748C31.526 26.8525 31.6188 25.9785 31.736 24.5527C31.8531 23.1562 32.0631 21.9062 32.3658 20.8027L35.1198 11.208C35.4518 10.1826 35.5494 9.55273 35.4127 9.31836C35.3248 9.20117 35.1783 9.14258 34.9733 9.14258C34.651 9.14258 34.1823 9.4502 33.567 10.0654C32.9615 10.6807 32.2975 11.5645 31.5748 12.7168L31.2526 12.5264C33.2643 9.1084 35.2516 7.39941 37.2145 7.39941C37.9567 7.39941 38.4352 7.6875 38.65 8.26367C38.8649 8.83984 38.816 9.84082 38.5035 11.2666L35.2955 22.5752C34.6412 24.8994 33.7086 26.7061 32.4977 27.9951C31.2965 29.2842 30.0319 29.9287 28.7037 29.9287ZM44.8522 23.3955C43.5826 23.3955 42.5768 23.0684 41.8346 22.4141C41.0924 21.75 40.7604 20.9053 40.8385 19.8799C40.8873 19.3916 41.0875 18.9668 41.4391 18.6055C41.7906 18.2344 42.2203 18.0488 42.7281 18.0488C43.2555 18.0488 43.6559 18.1953 43.9293 18.4883C44.2125 18.7812 44.3297 19.1768 44.2809 19.6748C44.2516 19.9092 44.1295 20.2412 43.9147 20.6709C43.6998 21.1006 43.5924 21.418 43.5924 21.623C43.5729 21.9844 43.7047 22.2773 43.9879 22.502C44.2809 22.7168 44.7106 22.8242 45.277 22.8242C46.0094 22.8242 46.6198 22.5508 47.108 22.0039C47.6158 21.4668 47.8844 20.8809 47.9137 20.2461C47.9528 19.6895 47.7721 19.0449 47.3717 18.3125C46.9713 17.5703 46.4635 16.8525 45.8483 16.1592C45.2526 15.4756 44.7545 14.7139 44.3541 13.874C43.9537 13.0244 43.7731 12.2383 43.8121 11.5156C43.9 10.4023 44.4762 9.47949 45.5406 8.74707C46.6442 7.98535 47.8551 7.60449 49.1735 7.60449C50.3942 7.60449 51.3756 7.97559 52.1178 8.71777C52.8698 9.44043 53.2311 10.2705 53.2018 11.208C53.1823 11.7061 53.0065 12.1504 52.6744 12.541C52.3522 12.9316 51.9567 13.127 51.4879 13.127C50.443 13.127 49.9498 12.6289 50.0084 11.6328C50.0377 11.2715 50.2086 10.9102 50.5211 10.5488C50.8531 10.1582 51.0338 9.87012 51.0631 9.68457C51.1119 9.30371 50.9459 8.94727 50.5651 8.61523C50.1842 8.2832 49.7106 8.11719 49.1442 8.11719C48.4215 8.11719 47.8356 8.3125 47.3864 8.70312C46.9469 9.08398 46.7223 9.60156 46.7125 10.2559C46.6832 10.9395 47.0348 11.7988 47.7672 12.834C48.6364 14.0352 49.3834 15.085 50.0084 15.9834C50.7701 17.0869 51.1217 18.0342 51.0631 18.8252C50.9752 20.1533 50.3649 21.2471 49.2321 22.1064C48.0992 22.9658 46.6393 23.3955 44.8522 23.3955ZM62.0553 15.2656L59.1403 16.0713C58.9059 16.9307 58.7887 17.79 58.7887 18.6494C58.7887 19.6553 58.9938 20.4316 59.4039 20.9785C59.8239 21.5254 60.3658 21.7988 61.0299 21.7988C62.8365 21.7988 64.4674 20.71 65.9225 18.5322L66.2301 18.6787C65.5465 19.9092 64.5944 21.042 63.3737 22.0771C62.2115 23.0342 60.9323 23.5127 59.5358 23.5127C58.1979 23.5127 57.1578 23.0195 56.4156 22.0332C55.6539 21.0176 55.2731 19.8213 55.2731 18.4443C55.2731 16.6768 55.6588 14.9775 56.4303 13.3467C57.2018 11.7061 58.276 10.3535 59.653 9.28906C61.0494 8.18555 62.568 7.63379 64.2086 7.63379C65.1559 7.63379 66.0055 7.93652 66.7574 8.54199C67.5387 9.14746 67.9293 9.91895 67.9293 10.8564C67.861 11.6475 67.6364 12.2822 67.2555 12.7607C66.8746 13.2393 66.2594 13.6738 65.4098 14.0645C64.6481 14.3965 63.5299 14.7969 62.0553 15.2656ZM64.15 8.23438C63.4762 8.23438 62.6071 9.01562 61.5426 10.5781C60.5172 12.0918 59.7457 13.7812 59.2281 15.6465C61.318 14.7969 62.8512 13.9277 63.8278 13.0391C64.8043 12.1504 65.2926 11.0518 65.2926 9.74316C65.2926 9.26465 65.1901 8.89355 64.985 8.62988C64.7799 8.36621 64.5016 8.23438 64.15 8.23438ZM72.0514 23.5127C71.485 23.5127 71.0211 23.3711 70.6598 23.0879C70.2985 22.8047 70.0641 22.3799 69.9567 21.8135C69.859 21.2373 69.9469 20.5146 70.2203 19.6455L75.025 4.25C75.3668 3.29297 75.4352 2.62402 75.2301 2.24316C75.0348 1.8623 74.5074 1.67188 73.6481 1.67188L73.7946 1.21777L79.8297 0.133789L73.5895 19.7041C73.111 21.1982 73.1891 21.9453 73.8239 21.9453C74.2242 21.9453 74.7076 21.6328 75.274 21.0078C75.8502 20.3828 76.4459 19.5186 77.0612 18.415L77.4274 18.5615C76.5778 20.1924 75.6647 21.4277 74.6881 22.2676C73.7115 23.0977 72.8326 23.5127 72.0514 23.5127ZM94.8795 9.46484C94.8795 11.457 94.0299 13.7178 92.3307 16.2471C90.6022 18.8154 88.5709 21.1152 86.2369 23.1465C85.3776 24.6699 84.2789 26.1299 82.941 27.5264C82.2086 28.3076 81.3737 28.9326 80.4362 29.4014C79.5084 29.8701 78.6051 30.1045 77.7262 30.1045C76.8082 30.1045 76.0709 29.9141 75.5143 29.5332C74.9479 29.1523 74.6647 28.6738 74.6647 28.0977C74.6647 27.6973 74.8258 27.3262 75.1481 26.9844C75.4703 26.6523 75.8707 26.4863 76.3492 26.4863C76.6324 26.4863 76.8619 26.5742 77.0377 26.75C77.2037 26.9258 77.3356 27.1406 77.4332 27.3945C77.5309 27.6484 77.6432 27.9023 77.7701 28.1562C77.8873 28.4102 78.0826 28.625 78.3561 28.8008C78.6198 28.9766 78.9664 29.0645 79.3961 29.0645C80.4117 29.0645 81.3541 28.1025 82.2233 26.1787C83.1217 24.2744 83.8004 22.043 84.2594 19.4844C84.7379 16.9648 84.9772 14.5674 84.9772 12.292C84.9772 10.3096 84.6696 9.31836 84.0543 9.31836C83.7223 9.31836 83.278 9.63086 82.7213 10.2559C82.1647 10.8711 81.5885 11.7207 80.9928 12.8047L80.5973 12.585C82.3649 9.26465 84.2057 7.60449 86.1198 7.60449C87.6041 7.60449 88.3463 9.1377 88.3463 12.2041C88.3463 15.2998 87.7848 18.6201 86.6617 22.165C88.5563 20.3584 90.0309 18.6152 91.0856 16.9355C92.1403 15.2559 92.6676 13.835 92.6676 12.6729C92.6676 12.1357 92.4576 11.5693 92.0377 10.9736C91.6373 10.3389 91.4371 9.83594 91.4371 9.46484C91.4371 8.94727 91.6178 8.50781 91.9791 8.14648C92.3502 7.78516 92.7701 7.60449 93.2389 7.60449C93.7467 7.60449 94.1471 7.76562 94.4401 8.08789C94.733 8.41016 94.8795 8.86914 94.8795 9.46484ZM100.1 23.3955C98.8307 23.3955 97.8248 23.0684 97.0826 22.4141C96.3405 21.75 96.0084 20.9053 96.0865 19.8799C96.1354 19.3916 96.3356 18.9668 96.6871 18.6055C97.0387 18.2344 97.4684 18.0488 97.9762 18.0488C98.5035 18.0488 98.9039 18.1953 99.1774 18.4883C99.4606 18.7812 99.5778 19.1768 99.5289 19.6748C99.4996 19.9092 99.3776 20.2412 99.1627 20.6709C98.9479 21.1006 98.8405 21.418 98.8405 21.623C98.8209 21.9844 98.9528 22.2773 99.236 22.502C99.5289 22.7168 99.9586 22.8242 100.525 22.8242C101.257 22.8242 101.868 22.5508 102.356 22.0039C102.864 21.4668 103.132 20.8809 103.162 20.2461C103.201 19.6895 103.02 19.0449 102.62 18.3125C102.219 17.5703 101.712 16.8525 101.096 16.1592C100.501 15.4756 100.003 14.7139 99.6022 13.874C99.2018 13.0244 99.0211 12.2383 99.0602 11.5156C99.1481 10.4023 99.7242 9.47949 100.789 8.74707C101.892 7.98535 103.103 7.60449 104.422 7.60449C105.642 7.60449 106.624 7.97559 107.366 8.71777C108.118 9.44043 108.479 10.2705 108.45 11.208C108.43 11.7061 108.255 12.1504 107.922 12.541C107.6 12.9316 107.205 13.127 106.736 13.127C105.691 13.127 105.198 12.6289 105.256 11.6328C105.286 11.2715 105.457 10.9102 105.769 10.5488C106.101 10.1582 106.282 9.87012 106.311 9.68457C106.36 9.30371 106.194 8.94727 105.813 8.61523C105.432 8.2832 104.959 8.11719 104.392 8.11719C103.67 8.11719 103.084 8.3125 102.634 8.70312C102.195 9.08398 101.97 9.60156 101.961 10.2559C101.931 10.9395 102.283 11.7988 103.015 12.834C103.884 14.0352 104.631 15.085 105.256 15.9834C106.018 17.0869 106.37 18.0342 106.311 18.8252C106.223 20.1533 105.613 21.2471 104.48 22.1064C103.347 22.9658 101.887 23.3955 100.1 23.3955ZM118.417 8.74707L115.077 19.6162C114.618 21.0908 114.701 21.8281 115.326 21.8281C115.707 21.8281 116.219 21.501 116.864 20.8467C117.518 20.1826 118.143 19.3281 118.739 18.2832H119.252C117.347 21.6914 115.345 23.3955 113.246 23.3955C112.377 23.3955 111.805 23.1074 111.532 22.5312C111.268 21.9453 111.302 20.9395 111.634 19.5137L114.93 8.74707H112.147L112.352 8H115.165L116.366 4.10352L120.028 3.53223L118.651 8C119.969 7.9707 121.288 7.78027 122.606 7.42871L122.079 8.74707H118.417ZM126.421 22.7949C126.02 23.1953 125.527 23.3955 124.941 23.3955C124.365 23.3955 123.867 23.1953 123.447 22.7949C123.047 22.375 122.846 21.877 122.846 21.3008C122.846 20.7148 123.047 20.2217 123.447 19.8213C123.867 19.4209 124.365 19.2207 124.941 19.2207C125.527 19.2207 126.02 19.4209 126.421 19.8213C126.821 20.2217 127.021 20.7148 127.021 21.3008C127.021 21.877 126.821 22.375 126.421 22.7949Z" fill="#FF5635"/>
</svg>
