<svg width="117" height="31" viewBox="0 0 117 31" fill="none" xmlns="http://www.w3.org/2000/svg">
<path d="M-0.00390625 23L1.19727 19.3086L2.83789 14.2695C3.4043 12.5215 3.72656 11.501 3.80469 11.208C4.25391 9.75293 4.36133 8.92285 4.12695 8.71777C4.08789 8.67871 4.0293 8.65918 3.95117 8.65918C3.32617 8.65918 2.14453 9.95801 0.40625 12.5557L0.201172 12.4678C2.32031 9.08887 4.08789 7.39941 5.50391 7.39941C6.59766 7.39941 6.70996 8.64941 5.84082 11.1494L3.49707 17.8438L3.61426 17.873C5.08887 14.377 6.40234 11.8184 7.55469 10.1973C8.13086 9.41602 8.61914 8.86426 9.01953 8.54199C9.46875 8.15137 9.84473 7.89746 10.1475 7.78027C10.46 7.66309 10.8164 7.60449 11.2168 7.60449C11.8027 7.60449 12.2715 7.77539 12.623 8.11719C12.9844 8.44922 13.1748 8.86914 13.1943 9.37695C13.1943 9.88477 13.0479 10.3242 12.7549 10.6953C12.4717 11.0566 12.125 11.2373 11.7148 11.2373C11.0605 11.2373 10.7334 10.959 10.7334 10.4023C10.7236 10.2754 10.7676 10.0801 10.8652 9.81641C10.9727 9.55273 11.0264 9.39648 11.0264 9.34766C11.0264 8.88867 10.748 8.65918 10.1914 8.65918C9.30273 8.65918 8.13574 9.87012 6.69043 12.292C5.25488 14.7041 3.64355 18.2734 1.85645 23H-0.00390625ZM20.1729 15.1338L16.335 16.2178C16.1299 17.0869 16.0273 17.8486 16.0273 18.5029C16.0273 19.6748 16.2568 20.5977 16.7158 21.2715C17.1846 21.9453 17.8584 22.2822 18.7373 22.2822C19.6357 22.2822 20.5342 21.9551 21.4326 21.3008C22.3408 20.6367 23.1611 19.7334 23.8936 18.5908L24.0986 18.708C23.3955 19.9678 22.4775 21.0908 21.3447 22.0771C20.2412 23.0342 19.0791 23.5127 17.8584 23.5127C16.7256 23.5127 15.8174 23.0537 15.1338 22.1357C14.4502 21.2178 14.1084 20.0752 14.1084 18.708C14.1084 17.0576 14.4893 15.3584 15.251 13.6104C16.0029 11.8818 17.0234 10.4609 18.3125 9.34766C19.6016 8.20508 20.9395 7.63379 22.3262 7.63379C23.3125 7.63379 24.1475 7.92188 24.8311 8.49805C25.5244 9.06445 25.8711 9.79688 25.8711 10.6953C25.8711 11.6816 25.3926 12.5312 24.4355 13.2441C23.4785 13.957 22.0576 14.5869 20.1729 15.1338ZM22.3555 7.9707C21.3301 7.9707 20.2021 8.81055 18.9717 10.4902C17.7803 12.1211 16.9209 13.9521 16.3936 15.9834C17.4775 15.6123 18.2881 15.3291 18.8252 15.1338C19.5576 14.8701 20.2656 14.5723 20.9492 14.2402C21.7695 13.8105 22.3701 13.4395 22.751 13.127C23.7959 12.2285 24.3184 11.2178 24.3184 10.0947C24.3184 9.44043 24.1328 8.92285 23.7617 8.54199C23.4004 8.16113 22.9316 7.9707 22.3555 7.9707ZM35.252 4.7041C34.8906 4.7041 34.5684 4.57227 34.2852 4.30859C34.0117 4.03516 33.875 3.71777 33.875 3.35645C33.875 2.98535 34.0117 2.6582 34.2852 2.375C34.5684 2.08203 34.8906 1.93555 35.252 1.93555C35.623 1.93555 35.9453 2.08203 36.2188 2.375C36.502 2.6582 36.6436 2.98535 36.6436 3.35645C36.6436 3.71777 36.502 4.03516 36.2188 4.30859C35.9453 4.57227 35.623 4.7041 35.252 4.7041ZM25.2617 29.9287C24.5586 29.9287 23.9873 29.6748 23.5479 29.167C23.0986 28.6592 22.874 28.0537 22.874 27.3506C22.8936 26.7061 23.0498 26.1592 23.3428 25.71C23.626 25.2607 23.9775 25.0361 24.3975 25.0361C24.6221 25.0361 24.7979 25.0898 24.9248 25.1973C25.042 25.3145 25.0957 25.4707 25.0859 25.666C25.0859 25.9102 24.9443 26.2617 24.6611 26.7207C24.3779 27.1309 24.2217 27.5703 24.1924 28.0391C24.1924 29.0352 24.71 29.5332 25.7451 29.5332C26.458 29.5332 27.0879 29.2402 27.6348 28.6543C28.1914 28.0684 28.5723 27.3457 28.7773 26.4863C28.9238 25.9199 29.085 24.9873 29.2607 23.6885C29.4072 22.6143 29.6367 21.4863 29.9492 20.3047L32.7031 10.7539C33.0059 9.65039 33.0889 9.03027 32.9521 8.89355C32.8936 8.83496 32.791 8.80566 32.6445 8.80566C31.9219 8.80566 30.7354 10.1094 29.085 12.7168L28.8652 12.585C29.8125 10.9346 30.7695 9.68457 31.7363 8.83496C32.7031 7.97559 33.5381 7.5459 34.2412 7.5459C35.1104 7.5459 35.2275 8.55664 34.5928 10.5781L31.1797 22.8535C30.4863 25.3047 29.6562 27.0967 28.6895 28.2295C27.7227 29.3623 26.5801 29.9287 25.2617 29.9287ZM40.9121 23.3955C39.7695 23.3955 38.8369 23.083 38.1143 22.458C37.4014 21.833 37.0645 21.0322 37.1035 20.0557C37.1523 19.6748 37.3086 19.3379 37.5723 19.0449C37.8359 18.7422 38.1387 18.5908 38.4805 18.5908C38.8223 18.5908 39.1006 18.7178 39.3154 18.9717C39.54 19.2158 39.6328 19.5186 39.5938 19.8799C39.5645 20.0752 39.4668 20.3584 39.3008 20.7295C39.1445 21.0908 39.0615 21.3594 39.0518 21.5352C39.0322 21.9941 39.2178 22.3652 39.6084 22.6484C39.999 22.9219 40.5215 23.0586 41.1758 23.0586C41.9668 23.0586 42.6895 22.7607 43.3438 22.165C44.0176 21.5791 44.3691 20.8564 44.3984 19.9971C44.4375 19.3818 44.2568 18.6934 43.8564 17.9316C43.4561 17.1602 42.9531 16.4277 42.3477 15.7344C41.7617 15.0508 41.2734 14.3037 40.8828 13.4932C40.502 12.6826 40.3311 11.9404 40.3701 11.2666C40.458 10.2119 40.9609 9.34277 41.8789 8.65918C42.8262 7.95605 43.8955 7.60449 45.0869 7.60449C46.1514 7.60449 47.0303 7.93652 47.7236 8.60059C48.417 9.26465 48.749 9.98242 48.7197 10.7539C48.7002 11.1445 48.5684 11.4961 48.3242 11.8086C48.0898 12.1113 47.8018 12.2627 47.46 12.2627C47.1182 12.2627 46.8545 12.165 46.6689 11.9697C46.4834 11.7646 46.3955 11.4814 46.4053 11.1201C46.415 10.9443 46.5371 10.6709 46.7715 10.2998C47.0059 9.92871 47.123 9.66992 47.123 9.52344C47.1426 9.06445 46.9521 8.67871 46.5518 8.36621C46.1514 8.04395 45.6533 7.88281 45.0576 7.88281C44.2568 7.88281 43.5586 8.12695 42.9629 8.61523C42.377 9.10352 42.0645 9.73828 42.0254 10.5195C41.9961 11.2617 42.333 12.1504 43.0361 13.1855L45.2041 16.3643C45.917 17.4092 46.2441 18.332 46.1855 19.1328C46.127 20.2656 45.6094 21.2568 44.6328 22.1064C43.6465 22.9658 42.4062 23.3955 40.9121 23.3955ZM57.1045 15.1338L53.2666 16.2178C53.0615 17.0869 52.959 17.8486 52.959 18.5029C52.959 19.6748 53.1885 20.5977 53.6475 21.2715C54.1162 21.9453 54.79 22.2822 55.6689 22.2822C56.5674 22.2822 57.4658 21.9551 58.3643 21.3008C59.2725 20.6367 60.0928 19.7334 60.8252 18.5908L61.0303 18.708C60.3271 19.9678 59.4092 21.0908 58.2764 22.0771C57.1729 23.0342 56.0107 23.5127 54.79 23.5127C53.6572 23.5127 52.749 23.0537 52.0654 22.1357C51.3818 21.2178 51.04 20.0752 51.04 18.708C51.04 17.0576 51.4209 15.3584 52.1826 13.6104C52.9346 11.8818 53.9551 10.4609 55.2441 9.34766C56.5332 8.20508 57.8711 7.63379 59.2578 7.63379C60.2441 7.63379 61.0791 7.92188 61.7627 8.49805C62.4561 9.06445 62.8027 9.79688 62.8027 10.6953C62.8027 11.6816 62.3242 12.5312 61.3672 13.2441C60.4102 13.957 58.9893 14.5869 57.1045 15.1338ZM59.2871 7.9707C58.2617 7.9707 57.1338 8.81055 55.9033 10.4902C54.7119 12.1211 53.8525 13.9521 53.3252 15.9834C54.4092 15.6123 55.2197 15.3291 55.7568 15.1338C56.4893 14.8701 57.1973 14.5723 57.8809 14.2402C58.7012 13.8105 59.3018 13.4395 59.6826 13.127C60.7275 12.2285 61.25 11.2178 61.25 10.0947C61.25 9.44043 61.0645 8.92285 60.6934 8.54199C60.332 8.16113 59.8633 7.9707 59.2871 7.9707ZM66.2217 23.5127C65.6357 23.5127 65.2451 23.2588 65.0498 22.751C64.8545 22.2432 64.8838 21.5449 65.1377 20.6562L70.3672 4.25C70.8164 3.14648 70.9482 2.375 70.7627 1.93555C70.5771 1.48633 69.9912 1.34961 69.0049 1.52539L69.0928 1.21777L73.5166 0.133789L67.1738 20.085C66.6855 21.5889 66.7783 22.3408 67.4521 22.3408C68.1748 22.3408 69.3027 21.1787 70.8359 18.8545L71.0557 18.957C69.1904 21.9941 67.5791 23.5127 66.2217 23.5127ZM87.3066 9.55273C87.3066 11.5742 86.4668 13.7959 84.7871 16.2178C83.166 18.6006 81.1055 20.8711 78.6055 23.0293C78.1562 23.9277 77.7412 24.6846 77.3604 25.2998C76.9795 25.9248 76.4766 26.6377 75.8516 27.4385C75.1973 28.2881 74.4697 28.9424 73.6689 29.4014C72.8682 29.8701 72.043 30.1045 71.1934 30.1045C70.4902 30.1045 69.9141 29.9629 69.4648 29.6797C69.0156 29.3965 68.791 29.0498 68.791 28.6396C68.791 28.3076 68.9082 28.0146 69.1426 27.7607C69.377 27.5068 69.6699 27.3799 70.0215 27.3799C70.2266 27.3799 70.3975 27.4434 70.5342 27.5703C70.6611 27.707 70.7686 27.8682 70.8564 28.0537C70.9443 28.2393 71.0469 28.4248 71.1641 28.6104C71.2715 28.8057 71.4375 28.9668 71.6621 29.0938C71.8867 29.2305 72.1699 29.2988 72.5117 29.2988C73.6934 29.2695 74.7676 28.3076 75.7344 26.4131C76.6914 24.5381 77.3994 22.3506 77.8584 19.8506C78.3369 17.3896 78.5762 14.9775 78.5762 12.6143C78.5762 10.2803 78.2979 9.11328 77.7412 9.11328C76.999 9.11328 75.9395 10.3438 74.5625 12.8047L74.3135 12.6729C75.3682 10.7002 76.2617 9.3623 76.9941 8.65918C77.7266 7.95605 78.376 7.60449 78.9424 7.60449C80.0361 7.60449 80.583 8.98633 80.583 11.75C80.583 15.0117 80.002 18.5615 78.8398 22.3994C80.9199 20.5537 82.624 18.6543 83.9521 16.7012C85.2314 14.8262 85.8711 13.2881 85.8711 12.0869C85.8711 11.5889 85.7197 11.0469 85.417 10.4609C85.1143 9.875 84.9629 9.40625 84.9629 9.05469C84.9629 8.44922 85.1875 8.01953 85.6367 7.76562C86.0469 7.54102 86.4277 7.5752 86.7793 7.86816C87.1797 8.2002 87.3555 8.76172 87.3066 9.55273ZM92.7324 23.3955C91.5898 23.3955 90.6572 23.083 89.9346 22.458C89.2217 21.833 88.8848 21.0322 88.9238 20.0557C88.9727 19.6748 89.1289 19.3379 89.3926 19.0449C89.6562 18.7422 89.959 18.5908 90.3008 18.5908C90.6426 18.5908 90.9209 18.7178 91.1357 18.9717C91.3604 19.2158 91.4531 19.5186 91.4141 19.8799C91.3848 20.0752 91.2871 20.3584 91.1211 20.7295C90.9648 21.0908 90.8818 21.3594 90.8721 21.5352C90.8525 21.9941 91.0381 22.3652 91.4287 22.6484C91.8193 22.9219 92.3418 23.0586 92.9961 23.0586C93.7871 23.0586 94.5098 22.7607 95.1641 22.165C95.8379 21.5791 96.1895 20.8564 96.2188 19.9971C96.2578 19.3818 96.0771 18.6934 95.6768 17.9316C95.2764 17.1602 94.7734 16.4277 94.168 15.7344C93.582 15.0508 93.0938 14.3037 92.7031 13.4932C92.3223 12.6826 92.1514 11.9404 92.1904 11.2666C92.2783 10.2119 92.7812 9.34277 93.6992 8.65918C94.6465 7.95605 95.7158 7.60449 96.9072 7.60449C97.9717 7.60449 98.8506 7.93652 99.5439 8.60059C100.237 9.26465 100.569 9.98242 100.54 10.7539C100.521 11.1445 100.389 11.4961 100.145 11.8086C99.9102 12.1113 99.6221 12.2627 99.2803 12.2627C98.9385 12.2627 98.6748 12.165 98.4893 11.9697C98.3037 11.7646 98.2158 11.4814 98.2256 11.1201C98.2354 10.9443 98.3574 10.6709 98.5918 10.2998C98.8262 9.92871 98.9434 9.66992 98.9434 9.52344C98.9629 9.06445 98.7725 8.67871 98.3721 8.36621C97.9717 8.04395 97.4736 7.88281 96.8779 7.88281C96.0771 7.88281 95.3789 8.12695 94.7832 8.61523C94.1973 9.10352 93.8848 9.73828 93.8457 10.5195C93.8164 11.2617 94.1533 12.1504 94.8564 13.1855L97.0244 16.3643C97.7373 17.4092 98.0645 18.332 98.0059 19.1328C97.9473 20.2656 97.4297 21.2568 96.4531 22.1064C95.4668 22.9658 94.2266 23.3955 92.7324 23.3955ZM109.525 8.4248L105.717 19.9971C105.229 21.4229 105.268 22.1357 105.834 22.1357C106.684 22.1357 107.982 20.8418 109.73 18.2539L109.979 18.3271C108.964 20.0264 107.978 21.291 107.021 22.1211C106.073 22.9512 105.248 23.3662 104.545 23.3662C103.988 23.3662 103.617 23.1221 103.432 22.6338C103.256 22.1357 103.305 21.4277 103.578 20.5098L107.519 8.4248H104.721L104.809 8H107.636L108.925 4.07422L111.107 3.56152L109.643 8C110.932 7.9707 112.221 7.78027 113.51 7.42871L113.1 8.4248H109.525ZM113.691 21.8867C113.691 21.4863 113.838 21.1494 114.131 20.876C114.424 20.5928 114.775 20.4512 115.186 20.4512C115.586 20.4512 115.928 20.5928 116.211 20.876C116.494 21.1494 116.636 21.4863 116.636 21.8867C116.636 22.3066 116.494 22.6631 116.211 22.9561C115.928 23.249 115.586 23.3955 115.186 23.3955C114.775 23.3955 114.424 23.249 114.131 22.9561C113.838 22.6533 113.691 22.2969 113.691 21.8867Z" fill="#FFFFE9"/>
</svg>
