<svg width="254" height="66" viewBox="0 0 254 66" fill="none" xmlns="http://www.w3.org/2000/svg">
<path d="M0.902832 50.5L3.50537 42.502L7.06006 31.584C8.28727 27.7965 8.98551 25.5854 9.15479 24.9507C10.1281 21.798 10.3608 19.9995 9.85303 19.5552C9.76839 19.4705 9.64144 19.4282 9.47217 19.4282C8.118 19.4282 5.55778 22.2424 1.7915 27.8706L1.34717 27.6802C5.93864 20.3592 9.76839 16.6987 12.8364 16.6987C15.2062 16.6987 15.4495 19.4071 13.5664 24.8237L8.48828 39.3281L8.74219 39.3916C11.9372 31.8167 14.783 26.2731 17.2798 22.7607C18.5282 21.068 19.5861 19.8726 20.4536 19.1743C21.4269 18.328 22.2415 17.7778 22.8975 17.5239C23.5745 17.27 24.3468 17.1431 25.2144 17.1431C26.4839 17.1431 27.4995 17.5133 28.2612 18.2539C29.0441 18.9733 29.4567 19.8831 29.499 20.9834C29.499 22.0837 29.1816 23.0358 28.5469 23.8398C27.9333 24.6227 27.1821 25.0142 26.2935 25.0142C24.8758 25.0142 24.167 24.4111 24.167 23.2051C24.1458 22.93 24.241 22.5068 24.4526 21.9355C24.6854 21.3643 24.8018 21.0257 24.8018 20.9199C24.8018 19.9255 24.1987 19.4282 22.9927 19.4282C21.0672 19.4282 18.5387 22.0519 15.4072 27.2993C12.2969 32.5256 8.80566 40.2591 4.93359 50.5H0.902832ZM44.6191 33.4565L36.3037 35.8052C35.8594 37.6883 35.6372 39.3387 35.6372 40.7563C35.6372 43.2954 36.1344 45.2949 37.1289 46.7549C38.1445 48.2148 39.6045 48.9448 41.5088 48.9448C43.4554 48.9448 45.402 48.236 47.3486 46.8184C49.3164 45.3796 51.0938 43.4224 52.6807 40.9468L53.125 41.2007C51.6016 43.9302 49.6126 46.3634 47.1582 48.5005C44.7673 50.5741 42.2493 51.6108 39.6045 51.6108C37.1501 51.6108 35.1823 50.6164 33.7012 48.6274C32.2201 46.6385 31.4795 44.1629 31.4795 41.2007C31.4795 37.6248 32.3047 33.9432 33.9551 30.1558C35.5843 26.4106 37.7954 23.332 40.5884 20.9199C43.3813 18.4443 46.2801 17.2065 49.2847 17.2065C51.4217 17.2065 53.2308 17.8307 54.7119 19.0791C56.2142 20.3063 56.9653 21.8932 56.9653 23.8398C56.9653 25.9769 55.9285 27.8177 53.855 29.3623C51.7814 30.9069 48.7028 32.2716 44.6191 33.4565ZM49.3481 17.9365C47.1265 17.9365 44.6826 19.7562 42.0166 23.3955C39.4352 26.929 37.5732 30.8963 36.4307 35.2974C38.7793 34.4933 40.5355 33.8797 41.6992 33.4565C43.2861 32.8853 44.8201 32.2399 46.3013 31.5205C48.0786 30.5895 49.3799 29.7855 50.2051 29.1084C52.4691 27.1618 53.6011 24.9718 53.6011 22.5386C53.6011 21.1209 53.1991 19.9995 52.395 19.1743C51.6121 18.3491 50.5965 17.9365 49.3481 17.9365ZM77.2905 10.8589C76.5076 10.8589 75.8094 10.5732 75.1958 10.002C74.6034 9.40951 74.3071 8.72184 74.3071 7.93896C74.3071 7.13493 74.6034 6.42611 75.1958 5.8125C75.8094 5.17773 76.5076 4.86035 77.2905 4.86035C78.0946 4.86035 78.7928 5.17773 79.3853 5.8125C79.9989 6.42611 80.3057 7.13493 80.3057 7.93896C80.3057 8.72184 79.9989 9.40951 79.3853 10.002C78.7928 10.5732 78.0946 10.8589 77.2905 10.8589ZM55.645 65.5122C54.1216 65.5122 52.8838 64.9621 51.9316 63.8618C50.9583 62.7616 50.4717 61.4497 50.4717 59.9263C50.514 58.5298 50.8525 57.3449 51.4873 56.3716C52.1009 55.3983 52.8626 54.9116 53.7725 54.9116C54.2591 54.9116 54.64 55.028 54.915 55.2607C55.1689 55.5146 55.2853 55.8532 55.2642 56.2764C55.2642 56.8053 54.9574 57.5671 54.3438 58.5615C53.7301 59.4502 53.3916 60.4023 53.3281 61.418C53.3281 63.5762 54.4495 64.6553 56.6924 64.6553C58.237 64.6553 59.6017 64.0205 60.7866 62.751C61.9927 61.4814 62.8179 59.9157 63.2622 58.0537C63.5796 56.8265 63.9287 54.8058 64.3096 51.9917C64.627 49.6642 65.1242 47.2204 65.8013 44.6602L71.7681 23.9668C72.424 21.5758 72.6038 20.2323 72.3076 19.936C72.1807 19.8091 71.9585 19.7456 71.6411 19.7456C70.0754 19.7456 67.5046 22.5703 63.9287 28.2197L63.4526 27.9341C65.505 24.3582 67.5786 21.6499 69.6733 19.8091C71.7681 17.9471 73.5771 17.0161 75.1006 17.0161C76.9837 17.0161 77.2376 19.2061 75.8623 23.5859L68.4673 50.1826C66.965 55.4935 65.1665 59.3761 63.0718 61.8306C60.9771 64.285 58.5015 65.5122 55.645 65.5122ZM89.5542 51.3569C87.0786 51.3569 85.0579 50.6799 83.4922 49.3257C81.9476 47.9715 81.2176 46.2365 81.3022 44.1206C81.408 43.2954 81.7466 42.5654 82.3179 41.9307C82.8892 41.2747 83.5451 40.9468 84.2856 40.9468C85.0262 40.9468 85.6292 41.2218 86.0947 41.772C86.5814 42.3009 86.7824 42.9569 86.6978 43.7397C86.6343 44.1629 86.4227 44.7765 86.063 45.5806C85.7244 46.3634 85.5446 46.9453 85.5234 47.3262C85.4811 48.3206 85.8831 49.1247 86.7295 49.7383C87.5758 50.3307 88.7078 50.627 90.1255 50.627C91.8394 50.627 93.4051 49.9816 94.8228 48.6909C96.2827 47.4214 97.0444 45.8556 97.1079 43.9937C97.1925 42.6606 96.8011 41.1689 95.9336 39.5186C95.0661 37.847 93.9764 36.2601 92.6646 34.7578C91.395 33.2767 90.3371 31.658 89.4907 29.9019C88.6655 28.1457 88.2952 26.5376 88.3799 25.0776C88.5703 22.7925 89.66 20.9093 91.6489 19.4282C93.7013 17.9048 96.0182 17.1431 98.5996 17.1431C100.906 17.1431 102.81 17.8625 104.312 19.3013C105.815 20.7401 106.534 22.2952 106.471 23.9668C106.428 24.8132 106.143 25.5749 105.614 26.252C105.106 26.9079 104.482 27.2358 103.741 27.2358C103.001 27.2358 102.429 27.0243 102.027 26.6011C101.625 26.1567 101.435 25.5431 101.456 24.7603C101.477 24.3794 101.742 23.7869 102.25 22.9829C102.757 22.1789 103.011 21.6182 103.011 21.3008C103.054 20.3063 102.641 19.4705 101.773 18.7935C100.906 18.0952 99.8268 17.7461 98.5361 17.7461C96.8011 17.7461 95.2882 18.2751 93.9976 19.333C92.728 20.391 92.0509 21.7663 91.9663 23.459C91.9028 25.0671 92.6328 26.9925 94.1562 29.2354L98.8535 36.1226C100.398 38.3866 101.107 40.3861 100.98 42.1211C100.853 44.5755 99.7316 46.7231 97.6157 48.564C95.4787 50.4259 92.7915 51.3569 89.5542 51.3569ZM124.638 33.4565L116.322 35.8052C115.878 37.6883 115.656 39.3387 115.656 40.7563C115.656 43.2954 116.153 45.2949 117.147 46.7549C118.163 48.2148 119.623 48.9448 121.527 48.9448C123.474 48.9448 125.421 48.236 127.367 46.8184C129.335 45.3796 131.112 43.4224 132.699 40.9468L133.144 41.2007C131.62 43.9302 129.631 46.3634 127.177 48.5005C124.786 50.5741 122.268 51.6108 119.623 51.6108C117.169 51.6108 115.201 50.6164 113.72 48.6274C112.239 46.6385 111.498 44.1629 111.498 41.2007C111.498 37.6248 112.323 33.9432 113.974 30.1558C115.603 26.4106 117.814 23.332 120.607 20.9199C123.4 18.4443 126.299 17.2065 129.303 17.2065C131.44 17.2065 133.249 17.8307 134.73 19.0791C136.233 20.3063 136.984 21.8932 136.984 23.8398C136.984 25.9769 135.947 27.8177 133.874 29.3623C131.8 30.9069 128.721 32.2716 124.638 33.4565ZM129.367 17.9365C127.145 17.9365 124.701 19.7562 122.035 23.3955C119.454 26.929 117.592 30.8963 116.449 35.2974C118.798 34.4933 120.554 33.8797 121.718 33.4565C123.305 32.8853 124.839 32.2399 126.32 31.5205C128.097 30.5895 129.398 29.7855 130.224 29.1084C132.488 27.1618 133.62 24.9718 133.62 22.5386C133.62 21.1209 133.218 19.9995 132.414 19.1743C131.631 18.3491 130.615 17.9365 129.367 17.9365ZM144.392 51.6108C143.122 51.6108 142.276 51.0607 141.853 49.9604C141.429 48.8602 141.493 47.3473 142.043 45.4219L153.374 9.875C154.347 7.48405 154.632 5.8125 154.23 4.86035C153.828 3.88704 152.559 3.59082 150.422 3.97168L150.612 3.30518L160.197 0.956543L146.455 44.1841C145.397 47.4425 145.598 49.0718 147.058 49.0718C148.623 49.0718 151.067 46.5539 154.389 41.5181L154.865 41.7402C150.824 48.3206 147.333 51.6108 144.392 51.6108ZM190.076 21.3643C190.076 25.7441 188.256 30.5578 184.617 35.8052C181.104 40.9679 176.64 45.8874 171.223 50.5635C170.25 52.5101 169.351 54.1499 168.525 55.4829C167.7 56.8371 166.611 58.3817 165.256 60.1167C163.839 61.9575 162.262 63.3752 160.527 64.3696C158.792 65.3853 157.004 65.8931 155.164 65.8931C153.64 65.8931 152.392 65.5863 151.418 64.9727C150.445 64.359 149.958 63.6079 149.958 62.7192C149.958 61.9998 150.212 61.3651 150.72 60.8149C151.228 60.2648 151.863 59.9897 152.625 59.9897C153.069 59.9897 153.439 60.1273 153.735 60.4023C154.01 60.6986 154.243 61.0477 154.434 61.4497C154.624 61.8517 154.846 62.2537 155.1 62.6558C155.333 63.0789 155.693 63.4281 156.179 63.7031C156.666 63.9993 157.279 64.1475 158.02 64.1475C160.58 64.084 162.908 61.9998 165.002 57.895C167.076 53.8325 168.61 49.0929 169.604 43.6763C170.641 38.3442 171.16 33.118 171.16 27.9976C171.16 22.9406 170.557 20.4121 169.351 20.4121C167.743 20.4121 165.447 23.0781 162.463 28.4102L161.924 28.1245C164.209 23.8504 166.145 20.9517 167.732 19.4282C169.319 17.9048 170.726 17.1431 171.953 17.1431C174.323 17.1431 175.508 20.137 175.508 26.125C175.508 33.1921 174.249 40.8833 171.731 49.1987C176.238 45.1997 179.93 41.0843 182.808 36.8525C185.579 32.79 186.965 29.4575 186.965 26.855C186.965 25.7759 186.637 24.6016 185.981 23.332C185.326 22.0625 184.998 21.0469 184.998 20.2852C184.998 18.9733 185.484 18.0423 186.458 17.4922C187.346 17.0055 188.171 17.0796 188.933 17.7144C189.801 18.4338 190.181 19.6504 190.076 21.3643ZM201.832 51.3569C199.356 51.3569 197.335 50.6799 195.77 49.3257C194.225 47.9715 193.495 46.2365 193.58 44.1206C193.685 43.2954 194.024 42.5654 194.595 41.9307C195.167 41.2747 195.822 40.9468 196.563 40.9468C197.304 40.9468 197.907 41.2218 198.372 41.772C198.859 42.3009 199.06 42.9569 198.975 43.7397C198.912 44.1629 198.7 44.7765 198.34 45.5806C198.002 46.3634 197.822 46.9453 197.801 47.3262C197.758 48.3206 198.16 49.1247 199.007 49.7383C199.853 50.3307 200.985 50.627 202.403 50.627C204.117 50.627 205.682 49.9816 207.1 48.6909C208.56 47.4214 209.322 45.8556 209.385 43.9937C209.47 42.6606 209.078 41.1689 208.211 39.5186C207.343 37.847 206.254 36.2601 204.942 34.7578C203.672 33.2767 202.614 31.658 201.768 29.9019C200.943 28.1457 200.573 26.5376 200.657 25.0776C200.848 22.7925 201.937 20.9093 203.926 19.4282C205.979 17.9048 208.296 17.1431 210.877 17.1431C213.183 17.1431 215.088 17.8625 216.59 19.3013C218.092 20.7401 218.812 22.2952 218.748 23.9668C218.706 24.8132 218.42 25.5749 217.891 26.252C217.383 26.9079 216.759 27.2358 216.019 27.2358C215.278 27.2358 214.707 27.0243 214.305 26.6011C213.903 26.1567 213.712 25.5431 213.733 24.7603C213.755 24.3794 214.019 23.7869 214.527 22.9829C215.035 22.1789 215.289 21.6182 215.289 21.3008C215.331 20.3063 214.918 19.4705 214.051 18.7935C213.183 18.0952 212.104 17.7461 210.813 17.7461C209.078 17.7461 207.566 18.2751 206.275 19.333C205.005 20.391 204.328 21.7663 204.244 23.459C204.18 25.0671 204.91 26.9925 206.434 29.2354L211.131 36.1226C212.675 38.3866 213.384 40.3861 213.257 42.1211C213.13 44.5755 212.009 46.7231 209.893 48.564C207.756 50.4259 205.069 51.3569 201.832 51.3569ZM238.216 18.9204L229.964 43.9937C228.906 47.0828 228.991 48.6274 230.218 48.6274C232.059 48.6274 234.873 45.8239 238.661 40.2168L239.2 40.3755C237 44.0571 234.863 46.7972 232.789 48.5957C230.737 50.3942 228.949 51.2935 227.425 51.2935C226.219 51.2935 225.415 50.7645 225.013 49.7065C224.632 48.6274 224.738 47.0934 225.331 45.1045L233.868 18.9204H227.806L227.997 18H234.122L236.915 9.49414L241.644 8.3833L238.47 18C241.263 17.9365 244.056 17.5239 246.849 16.7622L245.96 18.9204H238.216ZM247.243 48.0879C247.243 47.2204 247.56 46.4904 248.195 45.8979C248.83 45.2843 249.591 44.9775 250.48 44.9775C251.347 44.9775 252.088 45.2843 252.702 45.8979C253.315 46.4904 253.622 47.2204 253.622 48.0879C253.622 48.9977 253.315 49.77 252.702 50.4048C252.088 51.0396 251.347 51.3569 250.48 51.3569C249.591 51.3569 248.83 51.0396 248.195 50.4048C247.56 49.7489 247.243 48.9766 247.243 48.0879Z" fill="#FDFDFD"/>
</svg>
